<svg width="52" height="52" viewBox="0 0 52 52" fill="none" xmlns="http://www.w3.org/2000/svg">
<path d="M29.4094 6.81366C28.3001 6.62083 27.1647 6.49949 25.9991 6.49949C24.8334 6.49949 23.6981 6.62083 22.5887 6.81366" stroke="#68C2FF" stroke-width="3.25" stroke-linecap="round" stroke-linejoin="round"/>
<path d="M44.4538 19.4404C45.2186 21.5399 45.6563 23.7954 45.6563 26.1571" stroke="#68C2FF" stroke-width="3.25" stroke-linecap="round" stroke-linejoin="round"/>
<path d="M41.0518 13.5253C39.5828 11.7768 37.8083 10.297 35.8193 9.14648" stroke="#68C2FF" stroke-width="3.25" stroke-linecap="round" stroke-linejoin="round"/>
<path d="M16.1778 9.14648C14.1888 10.297 12.4165 11.7768 10.9453 13.5253" stroke="#68C2FF" stroke-width="3.25" stroke-linecap="round" stroke-linejoin="round"/>
<path d="M6.34048 26.1571C6.34048 23.7933 6.77815 21.5378 7.54298 19.4404" stroke="#68C2FF" stroke-width="3.25" stroke-linecap="round" stroke-linejoin="round"/>
<path d="M16.1777 43.168C18.1277 44.2968 20.2879 45.0963 22.5889 45.4993" stroke="#68C2FF" stroke-width="3.25" stroke-linecap="round" stroke-linejoin="round"/>
<path d="M7.54297 32.875C8.33597 35.0503 9.4843 37.0502 10.9446 38.79" stroke="#68C2FF" stroke-width="3.25" stroke-linecap="round" stroke-linejoin="round"/>
<path d="M29.4082 45.4993C31.7092 45.0963 33.8672 44.2968 35.8194 43.168" stroke="#68C2FF" stroke-width="3.25" stroke-linecap="round" stroke-linejoin="round"/>
<path d="M41.0518 38.79C42.5121 37.0502 43.6604 35.0503 44.4534 32.875" stroke="#68C2FF" stroke-width="3.25" stroke-linecap="round" stroke-linejoin="round"/>
<path fill-rule="evenodd" clip-rule="evenodd" d="M27.7332 16.0364L32.9245 22.9827C37.195 28.694 33.1239 36.8342 25.9999 36.8342V36.8342C18.8759 36.8342 14.8047 28.694 19.073 22.9827L24.2665 16.0364C25.1332 14.8772 26.8665 14.8772 27.7332 16.0364Z" stroke="#68C2FF" stroke-width="3.25" stroke-linecap="round" stroke-linejoin="round"/>
</svg>
