<svg width="52" height="52" viewBox="0 0 52 52" fill="none" xmlns="http://www.w3.org/2000/svg">
<rect width="52" height="52" rx="8.66667" fill="white"/>
<path d="M42.006 9.64355L28.1367 19.9444L30.7015 13.8671L42.006 9.64355Z" fill="#E2761B" stroke="#E2761B" stroke-width="0.355443" stroke-linecap="round" stroke-linejoin="round"/>
<path d="M9.98898 9.64355L23.7467 20.042L21.3074 13.8671L9.98898 9.64355ZM37.0166 33.521L33.3228 39.1802L41.2262 41.3546L43.4982 33.6464L37.0166 33.521ZM8.52539 33.6464L10.7835 41.3546L18.6869 39.1802L14.9931 33.521L8.52539 33.6464Z" fill="#E4761B" stroke="#E4761B" stroke-width="0.355443" stroke-linecap="round" stroke-linejoin="round"/>
<path d="M18.2395 23.9582L16.0371 27.2896L23.8847 27.6381L23.606 19.205L18.2395 23.9582ZM33.7535 23.9582L28.3173 19.1074L28.1361 27.6381L35.9698 27.2896L33.7535 23.9582ZM18.6855 39.1795L23.3969 36.8796L19.3267 33.7015L18.6855 39.1795ZM28.5961 36.8796L33.3214 39.1795L32.6663 33.7015L28.5961 36.8796Z" fill="#E4761B" stroke="#E4761B" stroke-width="0.355443" stroke-linecap="round" stroke-linejoin="round"/>
<path d="M33.3214 39.1788L28.5961 36.8789L28.9725 39.9594L28.9307 41.2557L33.3214 39.1788ZM18.6855 39.1788L23.0763 41.2557L23.0484 39.9594L23.3969 36.8789L18.6855 39.1788Z" fill="#D7C1B3" stroke="#D7C1B3" stroke-width="0.355443" stroke-linecap="round" stroke-linejoin="round"/>
<path d="M23.1476 31.6676L19.2168 30.5106L21.9906 29.2422L23.1476 31.6676ZM28.8486 31.6676L30.0055 29.2422L32.7933 30.5106L28.8486 31.6676Z" fill="#233447" stroke="#233447" stroke-width="0.355443" stroke-linecap="round" stroke-linejoin="round"/>
<path d="M18.6899 39.1809L19.359 33.5217L14.9961 33.6472L18.6899 39.1809ZM32.6567 33.5217L33.3258 39.1809L37.0196 33.6472L32.6567 33.5217ZM35.9742 27.291L28.1405 27.6395L28.8653 31.6678L30.0223 29.2425L32.8101 30.5109L35.9742 27.291ZM19.2196 30.5109L22.0074 29.2425L23.1504 31.6678L23.8891 27.6395L16.0415 27.291L19.2196 30.5109Z" fill="#CD6116" stroke="#CD6116" stroke-width="0.355443" stroke-linecap="round" stroke-linejoin="round"/>
<path d="M16.0371 27.291L19.3267 33.7029L19.2152 30.5109L16.0371 27.291ZM32.8057 30.5109L32.6663 33.7029L35.9698 27.291L32.8057 30.5109ZM23.8847 27.6395L23.146 31.6678L24.0659 36.421L24.275 30.1624L23.8847 27.6395ZM28.1361 27.6395L27.7598 30.1485L27.927 36.421L28.8609 31.6678L28.1361 27.6395Z" fill="#E4751F" stroke="#E4751F" stroke-width="0.355443" stroke-linecap="round" stroke-linejoin="round"/>
<path d="M28.8625 31.6677L27.9286 36.4209L28.5977 36.8808L32.6679 33.7028L32.8073 30.5107L28.8625 31.6677ZM19.2168 30.5107L19.3283 33.7028L23.3985 36.8808L24.0675 36.4209L23.1476 31.6677L19.2168 30.5107Z" fill="#F6851B" stroke="#F6851B" stroke-width="0.355443" stroke-linecap="round" stroke-linejoin="round"/>
<path d="M28.9307 41.2585L28.9725 39.9622L28.624 39.6556H23.369L23.0484 39.9622L23.0763 41.2585L18.6855 39.1816L20.2188 40.4361L23.3272 42.5967H28.6658L31.7882 40.4361L33.3214 39.1816L28.9307 41.2585Z" fill="#C0AD9E" stroke="#C0AD9E" stroke-width="0.355443" stroke-linecap="round" stroke-linejoin="round"/>
<path d="M28.5965 36.8799L27.9275 36.4199H24.0664L23.3973 36.8799L23.0488 39.9604L23.3694 39.6538H28.6244L28.9729 39.9604L28.5965 36.8799Z" fill="#161616" stroke="#161616" stroke-width="0.355443" stroke-linecap="round" stroke-linejoin="round"/>
<path d="M42.5919 20.6135L43.7767 14.9264L42.0065 9.64355L28.5972 19.596L33.7546 23.9589L41.0447 26.0915L42.6616 24.2098L41.9647 23.7079L43.0798 22.6904L42.2156 22.0213L43.3307 21.1711L42.5919 20.6135ZM8.23242 14.9264L9.41723 20.6135L8.66453 21.1711L9.77964 22.0213L8.92937 22.6904L10.0445 23.7079L9.34754 24.2098L10.9505 26.0915L18.2406 23.9589L23.398 19.596L9.98873 9.64355L8.23242 14.9264Z" fill="#763D16" stroke="#763D16" stroke-width="0.355443" stroke-linecap="round" stroke-linejoin="round"/>
<path d="M41.0449 26.0897L33.7549 23.957L35.9712 27.2884L32.6676 33.7004L37.0166 33.6446H43.4982L41.0449 26.0897ZM18.2408 23.957L10.9508 26.0897L8.52539 33.6446H14.9931L19.3281 33.7004L16.0385 27.2884L18.2408 23.957ZM28.1375 27.6369L28.5975 19.5941L30.7162 13.8652H21.3074L23.3982 19.5941L23.8861 27.6369L24.0534 30.1738L24.0673 36.4184H27.9284L27.9563 30.1738L28.1375 27.6369Z" fill="#F6851B" stroke="#F6851B" stroke-width="0.355443" stroke-linecap="round" stroke-linejoin="round"/>
</svg>
