<svg width="52" height="52" viewBox="0 0 52 52" fill="none" xmlns="http://www.w3.org/2000/svg">
<rect width="52" height="52" rx="8.66667" fill="#2980FE"/>
<path d="M13.462 21.1371V36.4508C13.462 37.0662 13.9623 37.5665 14.5777 37.5665H19.317C19.9324 37.5665 20.4327 37.0662 20.4327 36.4508V21.1371H22.3119C24.1517 21.1371 25.6393 19.6462 25.6393 17.8098C25.6393 15.97 24.1484 14.4824 22.3119 14.4824H9.34812C8.73268 14.4791 8.23242 14.9794 8.23242 15.5948V20.005C8.23242 20.6204 8.72938 21.1207 9.34483 21.1207L13.462 21.1338V21.1371Z" fill="white"/>
<path d="M41.3953 17.1552C39.7432 15.503 37.4591 14.4795 34.9348 14.4795H34.7801C29.7315 14.4795 25.6406 18.5704 25.6406 23.6157V36.4446C25.6406 37.0633 26.1442 37.5668 26.7662 37.5668H31.8181C32.4368 37.5668 32.9404 37.0633 32.9404 36.4446V32.7552H34.9348C39.9801 32.7552 44.071 28.6643 44.071 23.6157C44.071 21.0914 43.0475 18.8073 41.3953 17.1552ZM34.8558 25.7056C33.7105 25.7056 32.7824 24.7775 32.7824 23.6321C32.7824 22.4868 33.7105 21.5587 34.8558 21.5587C36.0011 21.5587 36.9292 22.4868 36.9292 23.6321C36.9292 24.7775 36.0011 25.7056 34.8558 25.7056Z" fill="white"/>
</svg>
