<svg width="52" height="52" viewBox="0 0 52 52" fill="none" xmlns="http://www.w3.org/2000/svg">
<rect width="52" height="52" rx="10.4" fill="white"/>
<path fill-rule="evenodd" clip-rule="evenodd" d="M24.9228 9.05317C25.5429 8.53826 26.4448 8.53827 27.0649 9.0532C31.6064 12.8246 36.785 12.7954 38.7895 12.7841C38.8896 12.7835 38.9817 12.783 39.0655 12.783C39.5129 12.783 39.9417 12.9615 40.2557 13.2784C40.5697 13.5954 40.7428 14.0244 40.736 14.4692C40.6411 20.7195 40.3892 25.1805 39.8947 28.45C39.4005 31.7174 38.6428 33.9568 37.4218 35.6439C36.1921 37.343 34.6117 38.3077 32.9289 39.2324C32.6373 39.3926 32.34 39.5529 32.0356 39.7171C30.5585 40.5137 28.9165 41.3992 26.9677 42.7892C26.3856 43.2043 25.6021 43.2043 25.02 42.7892C23.073 41.4006 21.4332 40.5155 19.9583 39.7195C19.6525 39.5544 19.3538 39.3932 19.0608 39.232C17.3793 38.3071 15.801 37.3422 14.5737 35.6425C13.3554 33.9552 12.6003 31.716 12.108 28.4491C11.6154 25.18 11.3646 20.7193 11.2697 14.4692C11.263 14.0244 11.436 13.5954 11.75 13.2784C12.064 12.9615 12.4928 12.783 12.9403 12.783C13.0231 12.783 13.1143 12.7835 13.2134 12.7841C15.2015 12.7954 20.3807 12.8249 24.9228 9.05317ZM14.641 16.0949C14.7532 21.4221 14.9971 25.1993 15.4127 27.9569C15.8709 30.9974 16.5164 32.6362 17.2882 33.705C18.0509 34.7614 19.052 35.4304 20.6784 36.325C20.9433 36.4707 21.2227 36.6213 21.5161 36.7795C22.767 37.4539 24.2726 38.2657 25.9938 39.417C27.7175 38.2642 29.2254 37.4519 30.4783 36.7769C30.7704 36.6195 31.0487 36.4696 31.3126 36.3246C32.941 35.4299 33.9445 34.7605 34.7094 33.7036C35.483 32.6346 36.1306 30.996 36.5903 27.956C37.0073 25.1988 37.2523 21.422 37.3647 16.0952C34.7925 16.0128 30.2628 15.4848 25.9938 12.4294C21.7299 15.4811 17.2067 16.0115 14.641 16.0949Z" fill="#3375BB"/>
</svg>
