<svg width="52" height="52" viewBox="0 0 52 52" fill="none" xmlns="http://www.w3.org/2000/svg">
<rect width="52" height="52" rx="8.66667" fill="#398BFA"/>
<path d="M14.5371 18.7832C20.8643 12.6074 31.1352 12.6074 37.4624 18.7832L38.2241 19.5321C38.5436 19.8391 38.5436 20.3425 38.2241 20.6494L35.6195 23.1909C35.4598 23.3505 35.2018 23.3505 35.0421 23.1909L33.9978 22.1719C29.5749 17.8623 22.4246 17.8623 18.0017 22.1719L16.8837 23.2646C16.724 23.4242 16.466 23.4242 16.3062 23.2646L13.7017 20.7231C13.3822 20.4161 13.3822 19.9127 13.7017 19.6058L14.5371 18.7832ZM42.8559 24.0381L45.1779 26.2972C45.4973 26.6041 45.4973 27.1075 45.1779 27.4145L34.7227 37.6174C34.4032 37.9243 33.8872 37.9243 33.5801 37.6174L26.1595 30.3734C26.0858 30.2998 25.9506 30.2998 25.8769 30.3734L18.4563 37.6174C18.1368 37.9243 17.6208 37.9243 17.3137 37.6174L6.8216 27.4145C6.50217 27.1075 6.50217 26.6041 6.8216 26.2972L9.14362 24.0381C9.46305 23.7311 9.97906 23.7311 10.2862 24.0381L17.7068 31.282C17.7805 31.3557 17.9157 31.3557 17.9894 31.282L25.41 24.0381C25.7295 23.7311 26.2455 23.7311 26.5526 24.0381L33.9732 31.282C34.047 31.3557 34.1821 31.3557 34.2558 31.282L41.6764 24.0381C42.0204 23.7311 42.5365 23.7311 42.8559 24.0381Z" fill="white"/>
</svg>
