<svg width="207" height="38" viewBox="0 0 207 38" fill="none" xmlns="http://www.w3.org/2000/svg">
<path fill-rule="evenodd" clip-rule="evenodd" d="M8.73563 0C3.91108 0 0 3.91108 0 8.73563V29.2644C0 34.0889 3.91108 38 8.73563 38H29.2644C34.0889 38 38 34.0889 38 29.2644V8.73563C38 3.91108 34.0889 0 29.2644 0H8.73563ZM32.9944 7.83893C34.3902 5.91914 32.0036 3.53258 30.0838 4.92838L20.6785 11.7666C19.6871 12.4874 18.3442 12.4874 17.3527 11.7666L7.94745 4.92838C6.02765 3.53258 3.64109 5.91914 5.03689 7.83893L11.8751 17.2442C12.5959 18.2356 12.5959 19.5786 11.8751 20.57L5.03689 29.9753C3.64109 31.8951 6.02765 34.2816 7.94745 32.8858L17.3527 26.0477C18.3442 25.3268 19.6871 25.3268 20.6785 26.0477L30.0838 32.8858C32.0036 34.2816 34.3902 31.8951 32.9944 29.9753L26.1562 20.57C25.4354 19.5786 25.4354 18.2356 26.1562 17.2442L32.9944 7.83893Z" fill="url(#paint0_linear_14_66)"/>
<path d="M51.1618 27.9423V9.75698H65.1118V13.4629H55.9V17.3805H64V21.007H55.9V27.9423H51.1618Z" fill="white"/>
<path d="M67.3254 27.9423V9.75698H77.8871C79.2283 9.75698 80.3489 10.0129 81.2489 10.5246C82.1489 11.0187 82.8195 11.707 83.2607 12.5893C83.7195 13.454 83.9489 14.4246 83.9489 15.5011C83.9489 16.6658 83.6754 17.707 83.1283 18.6246C82.5989 19.5246 81.8489 20.2305 80.8783 20.7423L84.5313 27.9423H79.2371L76.2195 21.5364H72.0636V27.9423H67.3254ZM72.0636 18.0158H76.9607C77.6136 18.0158 78.1342 17.804 78.5224 17.3805C78.9283 16.9393 79.1313 16.357 79.1313 15.6334C79.1313 15.157 79.043 14.7511 78.8666 14.4158C78.6901 14.0805 78.443 13.8246 78.1254 13.6482C77.8077 13.454 77.4195 13.357 76.9607 13.357H72.0636V18.0158Z" fill="white"/>
<path d="M94.6178 28.2599C91.6884 28.2599 89.456 27.4834 87.9207 25.9305C86.4031 24.3776 85.6443 22.0129 85.6443 18.8364C85.6443 16.7364 86.0149 14.9982 86.756 13.6217C87.5149 12.2276 88.609 11.1864 90.0384 10.4982C91.4854 9.79227 93.2237 9.43933 95.2531 9.43933C96.4707 9.43933 97.6178 9.58051 98.6943 9.86286C99.7707 10.1452 100.724 10.5687 101.553 11.1334C102.382 11.6805 103.027 12.3776 103.485 13.2246C103.944 14.054 104.174 15.0334 104.174 16.1629H99.5149C99.5149 15.6864 99.409 15.2629 99.1972 14.8923C98.9854 14.504 98.6854 14.1864 98.2972 13.9393C97.9266 13.6746 97.4943 13.4805 97.0001 13.357C96.506 13.2158 95.9854 13.1452 95.4384 13.1452C94.6266 13.1452 93.9031 13.2511 93.2678 13.4629C92.6501 13.6746 92.1384 14.0011 91.7325 14.4423C91.3266 14.8834 91.0178 15.4217 90.806 16.057C90.6119 16.6923 90.5149 17.4334 90.5149 18.2805V19.4452C90.5149 20.5746 90.6913 21.5187 91.0443 22.2776C91.3972 23.0364 91.9266 23.6099 92.6325 23.9982C93.356 24.3687 94.2384 24.554 95.2796 24.554C96.0913 24.554 96.8149 24.4305 97.4501 24.1834C98.1031 23.9364 98.6149 23.5834 98.9854 23.1246C99.3737 22.6482 99.5678 22.0835 99.5678 21.4305V21.2982H94.6707V17.9629H104.174V27.9423H101.421L100.971 26.0364C100.424 26.5305 99.8325 26.9452 99.1972 27.2805C98.5796 27.6158 97.8913 27.8629 97.1325 28.0217C96.3913 28.1805 95.5531 28.2599 94.6178 28.2599Z" fill="white"/>
<path d="M105.323 27.9423L111.862 18.3599L105.959 9.75698H111.703L115.038 15.0511H115.17L118.506 9.75698H123.879L117.95 18.3599L124.488 27.9423H118.717L114.773 21.6687H114.641L110.697 27.9423H105.323Z" fill="white"/>
<path d="M138.004 28.5924C136.61 28.5924 135.374 28.3453 134.298 27.8512C133.221 27.3571 132.374 26.6335 131.757 25.6806C131.157 24.71 130.857 23.5365 130.857 22.16V21.4983H133.689V22.16C133.689 23.4659 134.077 24.4453 134.854 25.0983C135.648 25.7512 136.698 26.0777 138.004 26.0777C139.327 26.0777 140.324 25.8041 140.995 25.2571C141.665 24.6924 142.001 23.9688 142.001 23.0865C142.001 22.5041 141.842 22.0277 141.524 21.6571C141.207 21.2865 140.757 20.9953 140.174 20.7835C139.592 20.5541 138.895 20.3424 138.083 20.1482L137.104 19.91C135.921 19.6277 134.889 19.2835 134.007 18.8777C133.142 18.4541 132.471 17.8982 131.995 17.21C131.518 16.5218 131.28 15.6394 131.28 14.563C131.28 13.4688 131.545 12.5335 132.074 11.7571C132.621 10.9806 133.371 10.3806 134.324 9.95707C135.277 9.53354 136.398 9.32178 137.686 9.32178C138.974 9.32178 140.121 9.54237 141.127 9.98354C142.151 10.4247 142.954 11.0777 143.536 11.9424C144.118 12.8071 144.41 13.8924 144.41 15.1982V16.1512H141.577V15.1982C141.577 14.4041 141.41 13.76 141.074 13.2659C140.757 12.7718 140.307 12.41 139.724 12.1806C139.142 11.9512 138.462 11.8365 137.686 11.8365C136.557 11.8365 135.674 12.0747 135.039 12.5512C134.421 13.01 134.112 13.6541 134.112 14.4835C134.112 15.0482 134.245 15.5159 134.51 15.8865C134.792 16.2394 135.198 16.5306 135.727 16.76C136.257 16.9894 136.918 17.1924 137.712 17.3688L138.692 17.6071C139.892 17.8718 140.951 18.2159 141.868 18.6394C142.786 19.0453 143.51 19.6012 144.039 20.3071C144.568 21.013 144.833 21.9218 144.833 23.0335C144.833 24.1453 144.551 25.1159 143.986 25.9453C143.439 26.7747 142.654 27.4277 141.63 27.9041C140.607 28.363 139.398 28.5924 138.004 28.5924Z" fill="white"/>
<path d="M147.119 33.5159V15.1718H149.793V17.0512H150.216C150.552 16.4688 151.055 15.9482 151.725 15.4894C152.414 15.0306 153.393 14.8012 154.664 14.8012C155.758 14.8012 156.755 15.0659 157.655 15.5953C158.572 16.1247 159.305 16.8924 159.852 17.8982C160.416 18.8865 160.699 20.0865 160.699 21.4983V21.8953C160.699 23.3071 160.425 24.5159 159.878 25.5218C159.331 26.51 158.599 27.2688 157.681 27.7983C156.764 28.3277 155.758 28.5924 154.664 28.5924C153.816 28.5924 153.102 28.4865 152.519 28.2747C151.937 28.063 151.469 27.7983 151.116 27.4806C150.764 27.1453 150.481 26.8012 150.269 26.4482H149.846V33.5159H147.119ZM153.869 26.21C155.069 26.21 156.049 25.8306 156.808 25.0718C157.566 24.313 157.946 23.2277 157.946 21.8159V21.5777C157.946 20.1835 157.558 19.1071 156.781 18.3482C156.022 17.5894 155.052 17.21 153.869 17.21C152.705 17.21 151.734 17.5894 150.958 18.3482C150.199 19.1071 149.819 20.1835 149.819 21.5777V21.8159C149.819 23.2277 150.199 24.313 150.958 25.0718C151.734 25.8306 152.705 26.21 153.869 26.21Z" fill="white"/>
<path d="M167.333 28.5924C166.398 28.5924 165.559 28.4335 164.818 28.1159C164.095 27.7983 163.512 27.3306 163.071 26.713C162.648 26.0953 162.436 25.3453 162.436 24.463C162.436 23.563 162.648 22.8218 163.071 22.2394C163.512 21.6394 164.104 21.1894 164.845 20.8894C165.604 20.5894 166.459 20.4394 167.412 20.4394H171.383V19.5924C171.383 18.8335 171.154 18.2247 170.695 17.7659C170.236 17.3071 169.53 17.0777 168.577 17.0777C167.642 17.0777 166.927 17.2982 166.433 17.7394C165.939 18.1806 165.612 18.7541 165.454 19.46L162.912 18.6394C163.124 17.9335 163.459 17.2982 163.918 16.7335C164.395 16.1512 165.021 15.6835 165.798 15.3306C166.574 14.9777 167.51 14.8012 168.604 14.8012C170.298 14.8012 171.63 15.2335 172.601 16.0982C173.571 16.963 174.057 18.1894 174.057 19.7777V25.1512C174.057 25.6806 174.304 25.9453 174.798 25.9453H175.91V28.2218H173.871C173.254 28.2218 172.751 28.063 172.362 27.7453C171.974 27.4277 171.78 26.9953 171.78 26.4482V26.3688H171.383C171.242 26.6335 171.03 26.9424 170.748 27.2953C170.465 27.6483 170.051 27.9571 169.504 28.2218C168.957 28.4688 168.233 28.5924 167.333 28.5924ZM167.73 26.3424C168.824 26.3424 169.707 26.0335 170.377 25.4159C171.048 24.7806 171.383 23.9159 171.383 22.8218V22.5571H167.571C166.848 22.5571 166.265 22.7159 165.824 23.0335C165.383 23.3335 165.162 23.7835 165.162 24.3835C165.162 24.9835 165.392 25.46 165.851 25.813C166.31 26.1659 166.936 26.3424 167.73 26.3424Z" fill="white"/>
<path d="M183.518 28.5924C182.265 28.5924 181.127 28.3277 180.103 27.7983C179.097 27.2688 178.294 26.5012 177.694 25.4953C177.112 24.4894 176.821 23.2806 176.821 21.8688V21.5247C176.821 20.113 177.112 18.913 177.694 17.9247C178.294 16.9188 179.097 16.1512 180.103 15.6218C181.127 15.0747 182.265 14.8012 183.518 14.8012C184.771 14.8012 185.839 15.0306 186.721 15.4894C187.603 15.9482 188.309 16.5571 188.839 17.3159C189.386 18.0747 189.739 18.913 189.897 19.8306L187.25 20.3865C187.162 19.8041 186.977 19.2747 186.694 18.7982C186.412 18.3218 186.015 17.9424 185.503 17.66C184.991 17.3777 184.347 17.2365 183.571 17.2365C182.812 17.2365 182.124 17.413 181.506 17.7659C180.906 18.1012 180.43 18.5953 180.077 19.2482C179.724 19.8835 179.547 20.66 179.547 21.5777V21.8159C179.547 22.7335 179.724 23.5188 180.077 24.1718C180.43 24.8247 180.906 25.3188 181.506 25.6541C182.124 25.9894 182.812 26.1571 183.571 26.1571C184.718 26.1571 185.591 25.8659 186.191 25.2835C186.791 24.6835 187.171 23.9247 187.33 23.0071L189.977 23.6159C189.765 24.5159 189.386 25.3453 188.839 26.1041C188.309 26.863 187.603 27.4718 186.721 27.9306C185.839 28.3718 184.771 28.5924 183.518 28.5924Z" fill="white"/>
<path d="M198.31 28.5924C196.986 28.5924 195.83 28.3188 194.842 27.7718C193.854 27.2071 193.077 26.4218 192.513 25.4159C191.965 24.3924 191.692 23.21 191.692 21.8688V21.5512C191.692 20.1924 191.965 19.01 192.513 18.0041C193.06 16.9806 193.818 16.1953 194.789 15.6482C195.777 15.0835 196.915 14.8012 198.204 14.8012C199.457 14.8012 200.551 15.0835 201.486 15.6482C202.439 16.1953 203.18 16.963 203.71 17.9512C204.239 18.9394 204.504 20.0953 204.504 21.4188V22.4512H194.471C194.507 23.5982 194.886 24.5159 195.61 25.2041C196.351 25.8747 197.268 26.21 198.363 26.21C199.386 26.21 200.154 25.9806 200.665 25.5218C201.195 25.063 201.601 24.5335 201.883 23.9335L204.133 25.0983C203.886 25.5924 203.524 26.113 203.048 26.66C202.589 27.2071 201.98 27.6659 201.221 28.0365C200.463 28.4071 199.492 28.5924 198.31 28.5924ZM194.498 20.36H201.724C201.654 19.3718 201.301 18.6041 200.665 18.0571C200.03 17.4924 199.201 17.21 198.177 17.21C197.154 17.21 196.315 17.4924 195.663 18.0571C195.027 18.6041 194.639 19.3718 194.498 20.36Z" fill="white"/>
<defs>
<linearGradient id="paint0_linear_14_66" x1="13.5159" y1="-3.68142" x2="80.0402" y2="31.9832" gradientUnits="userSpaceOnUse">
<stop stop-color="#75D6FF"/>
<stop offset="1" stop-color="#2663FF"/>
</linearGradient>
</defs>
</svg>
