<svg width="16" height="16" viewBox="0 0 16 16" fill="none" xmlns="http://www.w3.org/2000/svg">
<path d="M7.40363 0.443065C7.7577 0.180014 8.2423 0.180014 8.59637 0.443065L9.8236 1.35482C9.99896 1.48511 10.2122 1.55438 10.4306 1.55206L11.9594 1.53578C12.4004 1.53108 12.7925 1.81592 12.9243 2.23685L13.3813 3.69582C13.4466 3.9043 13.5783 4.08566 13.7564 4.21218L15.0028 5.0976C15.3624 5.35305 15.5121 5.81393 15.3714 6.23196L14.8835 7.68087C14.8137 7.88791 14.8137 8.11209 14.8835 8.31913L15.3714 9.76804C15.5121 10.1861 15.3624 10.6469 15.0028 10.9024L13.7564 11.7878C13.5783 11.9143 13.4466 12.0957 13.3813 12.3042L12.9243 13.7632C12.7925 14.1841 12.4004 14.4689 11.9594 14.4642L10.4306 14.4479C10.2122 14.4456 9.99896 14.5149 9.8236 14.6452L8.59637 15.5569C8.2423 15.82 7.7577 15.82 7.40363 15.5569L6.1764 14.6452C6.00104 14.5149 5.78784 14.4456 5.56939 14.4479L4.04062 14.4642C3.59955 14.4689 3.2075 14.1841 3.07567 13.7632L2.61874 12.3042C2.55345 12.0957 2.42168 11.9143 2.24359 11.7878L0.997215 10.9024C0.637627 10.6469 0.487877 10.1861 0.62864 9.76804L1.11654 8.31913C1.18626 8.11209 1.18626 7.88791 1.11654 7.68087L0.62864 6.23196C0.487877 5.81393 0.637626 5.35305 0.997215 5.0976L2.24358 4.21218C2.42168 4.08566 2.55345 3.9043 2.61874 3.69582L3.07567 2.23685C3.2075 1.81592 3.59955 1.53108 4.04062 1.53578L5.56939 1.55206C5.78784 1.55438 6.00104 1.48511 6.1764 1.35482L7.40363 0.443065Z" fill="#3BB5F9"/>
<path d="M4.81055 7.64571L7.29193 10.3043L11.1913 5.69604" stroke="white" stroke-linecap="round" stroke-linejoin="round"/>
</svg>
