<svg width="371" height="517" viewBox="0 0 371 517" fill="none" xmlns="http://www.w3.org/2000/svg">
<path d="M22.5697 298.045C23.533 298.649 24.6489 297.533 24.0453 296.57L20.7115 291.25C20.4937 290.902 20.4937 290.46 20.7115 290.113L24.0452 284.793C24.6489 283.83 23.533 282.714 22.5697 283.317L17.2497 286.651C16.9021 286.869 16.4605 286.869 16.1128 286.651L10.7929 283.317C9.82953 282.714 8.71362 283.83 9.3173 284.793L12.651 290.113C12.8689 290.46 12.8689 290.902 12.651 291.25L9.3173 296.57C8.71362 297.533 9.82953 298.649 10.7929 298.045L16.1128 294.712C16.4605 294.494 16.9021 294.494 17.2497 294.712L22.5697 298.045Z" fill="white"/>
<path opacity="0.1" d="M79.1442 244.076C79.7525 244.457 80.457 243.752 80.0759 243.144L77.971 239.785C77.8335 239.566 77.8335 239.287 77.971 239.067L80.0759 235.709C80.457 235.1 79.7525 234.396 79.1442 234.777L75.7853 236.882C75.5658 237.019 75.287 237.019 75.0675 236.882L71.7086 234.777C71.1003 234.396 70.3958 235.1 70.7769 235.709L72.8818 239.067C73.0193 239.287 73.0193 239.566 72.8818 239.785L70.7769 243.144C70.3958 243.752 71.1003 244.457 71.7086 244.076L75.0675 241.971C75.287 241.833 75.5658 241.833 75.7853 241.971L79.1442 244.076Z" fill="white"/>
<path opacity="0.1" d="M24.9475 498.579C25.3599 498.838 25.8377 498.36 25.5792 497.947L24.1519 495.67C24.0586 495.521 24.0586 495.332 24.1519 495.183L25.5792 492.905C25.8377 492.493 25.3599 492.015 24.9475 492.274L22.6698 493.701C22.5209 493.794 22.3319 493.794 22.183 493.701L19.9053 492.274C19.4929 492.015 19.0151 492.493 19.2736 492.905L20.7009 495.183C20.7941 495.332 20.7941 495.521 20.7009 495.67L19.2736 497.947C19.0151 498.36 19.4929 498.838 19.9053 498.579L22.183 497.152C22.3319 497.059 22.5209 497.059 22.6698 497.152L24.9475 498.579Z" fill="white"/>
<path opacity="0.2" d="M33.9475 166.579C34.3599 166.838 34.8377 166.36 34.5792 165.947L33.1519 163.67C33.0586 163.521 33.0586 163.332 33.1519 163.183L34.5792 160.905C34.8377 160.493 34.3599 160.015 33.9475 160.274L31.6698 161.701C31.5209 161.794 31.3319 161.794 31.183 161.701L28.9053 160.274C28.4929 160.015 28.0151 160.493 28.2736 160.905L29.7009 163.183C29.7941 163.332 29.7941 163.521 29.7009 163.67L28.2736 165.947C28.0151 166.36 28.4929 166.838 28.9053 166.579L31.183 165.152C31.3319 165.059 31.5209 165.059 31.6698 165.152L33.9475 166.579Z" fill="white"/>
<path d="M61.4434 111.45C62.1006 111.862 62.8619 111.101 62.45 110.443L60.1758 106.814C60.0272 106.577 60.0272 106.276 60.1758 106.039L62.45 102.409C62.8619 101.752 62.1006 100.991 61.4434 101.403L57.8142 103.677C57.577 103.826 57.2758 103.826 57.0386 103.677L53.4094 101.403C52.7522 100.991 51.9909 101.752 52.4027 102.409L54.677 106.039C54.8256 106.276 54.8256 106.577 54.677 106.814L52.4027 110.443C51.9909 111.101 52.7522 111.862 53.4094 111.45L57.0386 109.176C57.2758 109.027 57.577 109.027 57.8142 109.176L61.4434 111.45Z" fill="white"/>
<path d="M46.3854 220.735C47.2664 221.287 48.287 220.266 47.7349 219.385L44.686 214.52C44.4867 214.202 44.4867 213.798 44.686 213.48L47.7349 208.615C48.287 207.734 47.2664 206.713 46.3854 207.265L41.5199 210.314C41.2019 210.513 40.7981 210.513 40.4801 210.314L35.6146 207.265C34.7336 206.713 33.713 207.734 34.2651 208.615L37.314 213.48C37.5133 213.798 37.5133 214.202 37.314 214.52L34.2651 219.385C33.713 220.266 34.7336 221.287 35.6146 220.735L40.4801 217.686C40.7981 217.487 41.2019 217.487 41.5199 217.686L46.3854 220.735Z" fill="white"/>
<path d="M343.898 129.639C344.382 129.942 344.942 129.382 344.639 128.898L342.965 126.227C342.855 126.052 342.855 125.83 342.965 125.656L344.639 122.985C344.942 122.501 344.382 121.941 343.898 122.244L341.227 123.918C341.052 124.027 340.83 124.027 340.656 123.918L337.985 122.244C337.501 121.941 336.94 122.501 337.244 122.985L338.918 125.656C339.027 125.83 339.027 126.052 338.918 126.227L337.244 128.898C336.94 129.382 337.501 129.942 337.985 129.639L340.656 127.965C340.83 127.855 341.052 127.855 341.227 127.965L343.898 129.639Z" fill="white"/>
<path d="M338.829 251.185C340.367 252.149 342.149 250.367 341.185 248.829L335.862 240.334C335.514 239.779 335.514 239.074 335.862 238.519L341.185 230.024C342.149 228.486 340.367 226.704 338.829 227.668L330.334 232.991C329.779 233.339 329.074 233.339 328.519 232.991L320.024 227.668C318.486 226.704 316.704 228.486 317.668 230.024L322.991 238.519C323.339 239.074 323.339 239.779 322.991 240.334L317.668 248.829C316.704 250.367 318.486 252.149 320.024 251.185L328.519 245.862C329.074 245.514 329.779 245.514 330.334 245.862L338.829 251.185Z" fill="white"/>
<path d="M76.6782 505.045C77.5703 505.604 78.6037 504.57 78.0447 503.678L74.9575 498.752C74.7558 498.43 74.7558 498.021 74.9575 497.699L78.0447 492.772C78.6037 491.88 77.5703 490.847 76.6782 491.406L71.7518 494.493C71.4299 494.695 71.0209 494.695 70.699 494.493L65.7726 491.406C64.8805 490.847 63.8471 491.88 64.4062 492.772L67.4933 497.699C67.695 498.021 67.695 498.43 67.4933 498.752L64.4062 503.678C63.8471 504.57 64.8805 505.604 65.7726 505.045L70.699 501.957C71.0209 501.756 71.4299 501.756 71.7518 501.957L76.6782 505.045Z" fill="white"/>
<path d="M349.678 351.045C350.57 351.604 351.604 350.57 351.045 349.678L347.957 344.752C347.756 344.43 347.756 344.021 347.957 343.699L351.045 338.772C351.604 337.88 350.57 336.847 349.678 337.406L344.752 340.493C344.43 340.695 344.021 340.695 343.699 340.493L338.773 337.406C337.88 336.847 336.847 337.88 337.406 338.772L340.493 343.699C340.695 344.021 340.695 344.43 340.493 344.752L337.406 349.678C336.847 350.57 337.88 351.604 338.773 351.045L343.699 347.957C344.021 347.756 344.43 347.756 344.752 347.957L349.678 351.045Z" fill="white"/>
<path d="M278.373 209.433C279.065 209.867 279.867 209.065 279.434 208.373L277.038 204.551C276.882 204.301 276.882 203.983 277.038 203.734L279.434 199.911C279.867 199.219 279.065 198.417 278.373 198.851L274.551 201.246C274.301 201.403 273.983 201.403 273.734 201.246L269.911 198.851C269.219 198.417 268.417 199.219 268.851 199.911L271.246 203.734C271.403 203.983 271.403 204.301 271.246 204.551L268.851 208.373C268.417 209.065 269.219 209.867 269.911 209.433L273.734 207.038C273.983 206.881 274.301 206.881 274.551 207.038L278.373 209.433Z" fill="white"/>
<path opacity="0.1" d="M30.3733 397.433C31.0655 397.867 31.8674 397.065 31.4336 396.373L29.0381 392.551C28.8816 392.301 28.8816 391.983 29.0381 391.734L31.4336 387.911C31.8674 387.219 31.0655 386.417 30.3733 386.851L26.5506 389.246C26.3008 389.403 25.9835 389.403 25.7337 389.246L21.911 386.851C21.2188 386.417 20.4169 387.219 20.8507 387.911L23.2462 391.734C23.4027 391.983 23.4027 392.301 23.2462 392.551L20.8507 396.373C20.4169 397.065 21.2188 397.867 21.911 397.433L25.7337 395.038C25.9835 394.881 26.3008 394.881 26.5506 395.038L30.3733 397.433Z" fill="white"/>
<path opacity="0.2" d="M365.024 409.66C365.439 409.92 365.92 409.439 365.66 409.024L364.223 406.73C364.129 406.58 364.129 406.39 364.223 406.24L365.66 403.946C365.92 403.531 365.439 403.05 365.024 403.31L362.73 404.748C362.581 404.842 362.39 404.842 362.24 404.748L359.947 403.31C359.531 403.05 359.05 403.531 359.31 403.946L360.748 406.24C360.842 406.39 360.842 406.58 360.748 406.73L359.31 409.024C359.05 409.439 359.531 409.92 359.947 409.66L362.24 408.223C362.39 408.129 362.581 408.129 362.73 408.223L365.024 409.66Z" fill="white"/>
<path opacity="0.2" d="M348.024 11.66C348.439 11.9203 348.92 11.4392 348.66 11.0239L347.223 8.73026C347.129 8.58037 347.129 8.38999 347.223 8.2401L348.66 5.94648C348.92 5.53115 348.439 5.05004 348.024 5.31031L345.73 6.7476C345.581 6.84153 345.39 6.84153 345.24 6.7476L342.947 5.31031C342.531 5.05004 342.05 5.53115 342.31 5.94648L343.748 8.2401C343.842 8.38999 343.842 8.58037 343.748 8.73026L342.31 11.0239C342.05 11.4392 342.531 11.9203 342.947 11.66L345.24 10.2228C345.39 10.1288 345.581 10.1288 345.73 10.2228L348.024 11.66Z" fill="white"/>
</svg>
