<svg width="4" height="4" viewBox="0 0 4 4" fill="none" xmlns="http://www.w3.org/2000/svg">
<path opacity="0.2" d="M3.56298 3.95464C3.81868 4.11488 4.11488 3.81868 3.95464 3.56298L3.06976 2.15089C3.01193 2.05861 3.01193 1.94139 3.06976 1.84912L3.95464 0.437025C4.11488 0.181321 3.81868 -0.114878 3.56298 0.0453574L2.15089 0.930241C2.05861 0.988068 1.94139 0.988068 1.84912 0.930241L0.437025 0.0453579C0.181321 -0.114878 -0.114878 0.181321 0.0453574 0.437024L0.930241 1.84912C0.988068 1.94139 0.988068 2.05861 0.930241 2.15089L0.0453579 3.56298C-0.114878 3.81868 0.181321 4.11488 0.437024 3.95464L1.84912 3.06976C1.94139 3.01193 2.05861 3.01193 2.15089 3.06976L3.56298 3.95464Z" fill="white"/>
</svg>
