<svg width="496" height="240" viewBox="0 0 496 240" fill="none" xmlns="http://www.w3.org/2000/svg">
<g clip-path="url(#clip0_85_5305)">
<rect width="777.067" height="518.044" transform="translate(-140.533 -139.146)" fill="#050B15"/>
<path d="M217.31 -371H277.737L247.523 119.523L217.31 -371Z" fill="url(#paint0_radial_85_5305)" fill-opacity="0.3"/>
<path d="M217.31 610.046H277.737L247.523 119.523L217.31 610.046Z" fill="url(#paint1_radial_85_5305)" fill-opacity="0.3"/>
<path d="M345.296 -362.106L403.664 -346.466L247.523 119.523L345.296 -362.106Z" fill="url(#paint2_radial_85_5305)" fill-opacity="0.3"/>
<path d="M91.3827 585.512L149.751 601.152L247.523 119.523L91.3827 585.512Z" fill="url(#paint3_radial_85_5305)" fill-opacity="0.3"/>
<path d="M466.619 -320.389L518.951 -290.176L247.523 119.523L466.619 -320.389Z" fill="url(#paint4_radial_85_5305)" fill-opacity="0.3"/>
<path d="M-23.9039 529.222L28.4272 559.435L247.523 119.523L-23.9039 529.222Z" fill="url(#paint5_radial_85_5305)" fill-opacity="0.3"/>
<path d="M573.012 -248.693L615.74 -205.965L247.523 119.523L573.012 -248.693Z" fill="url(#paint6_radial_85_5305)" fill-opacity="0.3"/>
<path d="M-120.693 445.011L-77.965 487.74L247.523 119.523L-120.693 445.011Z" fill="url(#paint7_radial_85_5305)" fill-opacity="0.3"/>
<path d="M657.222 -151.904L687.436 -99.573L247.523 119.523L657.222 -151.904Z" fill="url(#paint8_radial_85_5305)" fill-opacity="0.3"/>
<path d="M-192.389 338.619L-162.176 390.95L247.523 119.523L-192.389 338.619Z" fill="url(#paint9_radial_85_5305)" fill-opacity="0.3"/>
<path d="M713.513 -36.6176L729.152 21.7502L247.523 119.523L713.513 -36.6176Z" fill="url(#paint10_radial_85_5305)" fill-opacity="0.3"/>
<path d="M-234.106 217.296L-218.466 275.664L247.523 119.523L-234.106 217.296Z" fill="url(#paint11_radial_85_5305)" fill-opacity="0.3"/>
<path d="M738.047 89.3098V149.737L247.523 119.523L738.047 89.3098Z" fill="url(#paint12_radial_85_5305)" fill-opacity="0.3"/>
<path d="M-243 89.3097L-243 149.737L247.523 119.523L-243 89.3097Z" fill="url(#paint13_radial_85_5305)" fill-opacity="0.3"/>
<path d="M729.152 217.296L713.513 275.664L247.523 119.523L729.152 217.296Z" fill="url(#paint14_radial_85_5305)" fill-opacity="0.3"/>
<path d="M-218.466 -36.6176L-234.106 21.7502L247.523 119.523L-218.466 -36.6176Z" fill="url(#paint15_radial_85_5305)" fill-opacity="0.3"/>
<path d="M687.436 338.619L657.222 390.95L247.523 119.523L687.436 338.619Z" fill="url(#paint16_radial_85_5305)" fill-opacity="0.3"/>
<path d="M-162.176 -151.904L-192.389 -99.573L247.523 119.523L-162.176 -151.904Z" fill="url(#paint17_radial_85_5305)" fill-opacity="0.3"/>
<path d="M615.74 445.011L573.012 487.74L247.523 119.523L615.74 445.011Z" fill="url(#paint18_radial_85_5305)" fill-opacity="0.3"/>
<path d="M-77.9649 -248.693L-120.693 -205.965L247.523 119.523L-77.9649 -248.693Z" fill="url(#paint19_radial_85_5305)" fill-opacity="0.3"/>
<path d="M518.951 529.222L466.62 559.435L247.523 119.523L518.951 529.222Z" fill="url(#paint20_radial_85_5305)" fill-opacity="0.3"/>
<path d="M28.4272 -320.389L-23.9039 -290.176L247.523 119.523L28.4272 -320.389Z" fill="url(#paint21_radial_85_5305)" fill-opacity="0.3"/>
<path d="M403.664 585.513L345.296 601.152L247.523 119.523L403.664 585.513Z" fill="url(#paint22_radial_85_5305)" fill-opacity="0.3"/>
<path d="M149.75 -362.106L91.3826 -346.466L247.523 119.523L149.75 -362.106Z" fill="url(#paint23_radial_85_5305)" fill-opacity="0.3"/>
<g filter="url(#filter0_f_85_5305)">
<ellipse cx="201.253" cy="363.479" rx="296.526" ry="498.888" transform="rotate(76.8019 201.253 363.479)" fill="url(#paint24_linear_85_5305)"/>
</g>
<path opacity="0.1" d="M21.9503 46.9854C22.5163 47.34 23.1718 46.6845 22.8172 46.1185L20.8588 42.9934C20.7308 42.7891 20.7308 42.5297 20.8588 42.3255L22.8172 39.2003C23.1718 38.6344 22.5163 37.9788 21.9503 38.3335L18.8251 40.2919C18.6209 40.4198 18.3615 40.4198 18.1573 40.2919L15.0321 38.3335C14.4662 37.9788 13.8106 38.6344 14.1653 39.2003L16.1237 42.3255C16.2516 42.5297 16.2516 42.7891 16.1237 42.9934L14.1653 46.1185C13.8106 46.6845 14.4662 47.34 15.0321 46.9854L18.1573 45.027C18.3615 44.899 18.6209 44.899 18.8251 45.027L21.9503 46.9854Z" fill="white"/>
<path opacity="0.1" d="M176.264 213.786C176.83 214.14 177.485 213.485 177.131 212.919L175.172 209.794C175.044 209.589 175.044 209.33 175.172 209.126L177.131 206.001C177.485 205.435 176.83 204.779 176.264 205.134L173.139 207.092C172.934 207.22 172.675 207.22 172.471 207.092L169.346 205.134C168.78 204.779 168.124 205.435 168.479 206.001L170.437 209.126C170.565 209.33 170.565 209.589 170.437 209.794L168.479 212.919C168.124 213.485 168.78 214.14 169.346 213.786L172.471 211.827C172.675 211.699 172.934 211.699 173.139 211.827L176.264 213.786Z" fill="white"/>
<path opacity="0.1" d="M269.344 223.775C269.91 224.13 270.565 223.474 270.211 222.908L268.252 219.783C268.124 219.579 268.124 219.319 268.252 219.115L270.211 215.99C270.565 215.424 269.91 214.768 269.344 215.123L266.219 217.081C266.014 217.209 265.755 217.209 265.551 217.081L262.426 215.123C261.86 214.768 261.204 215.424 261.559 215.99L263.517 219.115C263.645 219.319 263.645 219.579 263.517 219.783L261.559 222.908C261.204 223.474 261.86 224.13 262.426 223.775L265.551 221.817C265.755 221.689 266.014 221.689 266.219 221.817L269.344 223.775Z" fill="white"/>
<path d="M271.126 9.52708C271.576 9.80911 272.097 9.28778 271.815 8.83773L270.258 6.35237C270.156 6.18995 270.156 5.98366 270.258 5.82124L271.815 3.33588C272.097 2.88583 271.576 2.3645 271.126 2.64653L268.641 4.20397C268.478 4.30575 268.272 4.30575 268.109 4.20397L265.624 2.64653C265.174 2.3645 264.653 2.88583 264.935 3.33588L266.492 5.82124C266.594 5.98366 266.594 6.18995 266.492 6.35237L264.935 8.83773C264.653 9.28778 265.174 9.80911 265.624 9.52708L268.109 7.96964C268.272 7.86786 268.478 7.86786 268.641 7.96964L271.126 9.52708Z" fill="white"/>
<path d="M103.914 208.8C104.744 209.32 105.706 208.359 105.186 207.529L102.313 202.945C102.126 202.646 102.126 202.265 102.313 201.966L105.186 197.382C105.706 196.552 104.744 195.591 103.914 196.111L99.3306 198.983C99.0311 199.171 98.6506 199.171 98.3511 198.983L93.7674 196.111C92.9374 195.591 91.976 196.552 92.4961 197.382L95.3684 201.966C95.5561 202.265 95.5561 202.646 95.3684 202.945L92.4961 207.529C91.976 208.359 92.9374 209.32 93.7674 208.8L98.351 205.928C98.6506 205.74 99.0311 205.74 99.3306 205.928L103.914 208.8Z" fill="white"/>
<path d="M154.318 47.8907C154.962 48.2943 155.708 47.5483 155.304 46.9042L153.075 43.3475C152.93 43.1151 152.93 42.8199 153.075 42.5875L155.304 39.0308C155.708 38.3867 154.962 37.6407 154.318 38.0443L150.761 40.273C150.528 40.4187 150.233 40.4187 150.001 40.273L146.444 38.0443C145.8 37.6407 145.054 38.3867 145.458 39.0308L147.686 42.5875C147.832 42.8199 147.832 43.1151 147.686 43.3475L145.458 46.9042C145.054 47.5483 145.8 48.2943 146.444 47.8907L150.001 45.6619C150.233 45.5163 150.528 45.5163 150.761 45.6619L154.318 47.8907Z" fill="white"/>
<path d="M17.9651 153.153C18.6091 153.556 19.3552 152.81 18.9516 152.166L16.7228 148.61C16.5771 148.377 16.5771 148.082 16.7228 147.85L18.9516 144.293C19.3552 143.649 18.6091 142.903 17.9651 143.306L14.4084 145.535C14.1759 145.681 13.8807 145.681 13.6483 145.535L10.0916 143.306C9.44754 142.903 8.70149 143.649 9.10508 144.293L11.3339 147.85C11.4795 148.082 11.4795 148.377 11.3339 148.61L9.10508 152.166C8.70149 152.81 9.44754 153.556 10.0916 153.153L13.6483 150.924C13.8807 150.778 14.1759 150.778 14.4084 150.924L17.9651 153.153Z" fill="white"/>
<path opacity="0.2" d="M189.032 85.4473C189.418 85.6894 189.866 85.2418 189.624 84.8554L188.287 82.7214C188.199 82.5819 188.199 82.4048 188.287 82.2653L189.624 80.1313C189.866 79.7449 189.418 79.2972 189.032 79.5394L186.898 80.8767C186.758 80.9641 186.581 80.9641 186.442 80.8767L184.308 79.5394C183.921 79.2972 183.474 79.7449 183.716 80.1313L185.053 82.2653C185.141 82.4048 185.141 82.5819 185.053 82.7214L183.716 84.8554C183.474 85.2418 183.921 85.6894 184.308 85.4473L186.442 84.11C186.581 84.0226 186.758 84.0226 186.898 84.11L189.032 85.4473Z" fill="white"/>
<path d="M377.033 45.6907C377.93 45.129 378.968 46.1672 378.406 47.0636L375.304 52.0133C375.102 52.3368 375.102 52.7476 375.304 53.0711L378.406 58.0209C378.968 58.9172 377.93 59.9554 377.033 59.3938L372.084 56.292C371.76 56.0893 371.349 56.0893 371.026 56.292L366.076 59.3938C365.18 59.9554 364.141 58.9172 364.703 58.0209L367.805 53.0711C368.008 52.7476 368.008 52.3368 367.805 52.0133L364.703 47.0636C364.141 46.1672 365.18 45.129 366.076 45.6907L371.026 48.7924C371.349 48.9951 371.76 48.9951 372.084 48.7924L377.033 45.6907Z" fill="white"/>
<path opacity="0.1" d="M441.95 72.0254C442.516 71.6708 443.172 72.3263 442.817 72.8923L440.859 76.0174C440.731 76.2217 440.731 76.4811 440.859 76.6853L442.817 79.8105C443.172 80.3764 442.516 81.032 441.95 80.6773L438.825 78.7189C438.621 78.591 438.362 78.591 438.157 78.7189L435.032 80.6773C434.466 81.032 433.811 80.3764 434.165 79.8105L436.124 76.6853C436.252 76.4811 436.252 76.2217 436.124 76.0174L434.165 72.8923C433.811 72.3263 434.466 71.6708 435.032 72.0254L438.157 73.9838C438.362 74.1118 438.621 74.1118 438.825 73.9838L441.95 72.0254Z" fill="white"/>
<path opacity="0.2" d="M294.356 28.2427C294.74 28.0022 295.185 28.4467 294.944 28.8304L293.616 30.9497C293.529 31.0881 293.529 31.264 293.616 31.4025L294.944 33.5217C295.185 33.9055 294.74 34.35 294.356 34.1095L292.237 32.7815C292.099 32.6948 291.923 32.6948 291.784 32.7815L289.665 34.1095C289.281 34.35 288.837 33.9055 289.077 33.5217L290.405 31.4025C290.492 31.264 290.492 31.0881 290.405 30.9497L289.077 28.8304C288.837 28.4467 289.281 28.0022 289.665 28.2427L291.784 29.5706C291.923 29.6574 292.099 29.6574 292.237 29.5706L294.356 28.2427Z" fill="white"/>
<path opacity="0.2" d="M320.259 235.46C320.642 235.22 321.087 235.664 320.847 236.048L319.519 238.167C319.432 238.306 319.432 238.482 319.519 238.62L320.847 240.739C321.087 241.123 320.642 241.568 320.259 241.327L318.14 239.999C318.001 239.912 317.825 239.912 317.687 239.999L315.567 241.327C315.184 241.568 314.739 241.123 314.98 240.739L316.308 238.62C316.394 238.482 316.394 238.306 316.308 238.167L314.98 236.048C314.739 235.664 315.184 235.22 315.567 235.46L317.687 236.788C317.825 236.875 318.001 236.875 318.14 236.788L320.259 235.46Z" fill="white"/>
<path d="M425.482 195.423C426.093 195.039 426.801 195.748 426.418 196.359L424.302 199.736C424.164 199.957 424.164 200.237 424.302 200.458L426.418 203.834C426.801 204.446 426.093 205.154 425.482 204.771L422.105 202.655C421.884 202.517 421.604 202.517 421.383 202.655L418.007 204.771C417.395 205.154 416.687 204.446 417.07 203.834L419.186 200.458C419.324 200.237 419.324 199.957 419.186 199.736L417.07 196.359C416.687 195.748 417.395 195.039 418.007 195.423L421.383 197.539C421.604 197.677 421.884 197.677 422.105 197.539L425.482 195.423Z" fill="white"/>
<path opacity="0.2" d="M498.948 154.441C499.334 154.198 499.782 154.646 499.54 155.032L498.203 157.166C498.115 157.306 498.115 157.483 498.203 157.622L499.54 159.757C499.782 160.143 499.334 160.591 498.948 160.348L496.814 159.011C496.675 158.924 496.497 158.924 496.358 159.011L494.224 160.348C493.837 160.591 493.39 160.143 493.632 159.757L494.969 157.622C495.057 157.483 495.057 157.306 494.969 157.166L493.632 155.032C493.39 154.646 493.837 154.198 494.224 154.441L496.358 155.778C496.497 155.865 496.675 155.865 496.814 155.778L498.948 154.441Z" fill="white"/>
<path d="M257.386 128.886C256.919 131.268 256.486 133.942 256.089 136.909C255.692 139.875 255.319 142.619 254.968 145.141C254.688 145.141 254.349 145.141 253.952 145.141C253.555 145.141 253.03 145.141 252.376 145.141C245.182 145.071 238.316 144.628 231.776 143.81C225.26 142.993 219.783 141.323 215.346 138.8C211.422 136.441 208.526 133.837 206.658 130.988C204.813 128.139 203.89 124.927 203.89 121.354C203.89 117.827 204.824 114.557 206.693 111.545C208.561 108.508 211.364 105.951 215.101 103.872C219.608 101.35 225.108 99.6332 231.601 98.7224C238.117 97.7881 244.739 97.2743 251.465 97.1809C251.932 97.1809 252.423 97.1809 252.936 97.1809C253.45 97.1809 253.871 97.1809 254.198 97.1809C254.408 98.5822 254.723 100.848 255.144 103.977C255.564 107.107 256.066 110.318 256.65 113.611C256.206 113.611 255.716 113.611 255.179 113.611C254.641 113.611 254.163 113.611 253.742 113.611C251.243 113.658 248.429 113.74 245.299 113.857C242.17 113.95 239.297 114.172 236.681 114.522C232.897 115.036 229.885 115.784 227.642 116.764C225.424 117.722 224.314 119.217 224.314 121.249C224.314 123.164 225.459 124.635 227.748 125.663C230.036 126.667 232.956 127.391 236.506 127.835C239.846 128.255 242.835 128.536 245.474 128.676C248.137 128.793 251.033 128.851 254.163 128.851C254.91 128.851 255.541 128.863 256.054 128.886C256.568 128.909 257.012 128.909 257.386 128.886ZM310.916 144.546C309.515 144.546 305.44 144.546 298.69 144.546C291.963 144.522 287.549 144.511 285.447 144.511C282.318 144.511 278.779 144.522 274.832 144.546C270.885 144.546 267.113 144.546 263.516 144.546C263.516 140.926 263.516 136.722 263.516 131.934C263.54 127.123 263.552 123.316 263.552 120.513C263.552 115.678 263.54 110.914 263.516 106.219C263.516 101.525 263.516 98.664 263.516 97.6363H283.24C283.24 101.163 283.228 104.351 283.205 107.2C283.205 110.05 283.205 112.899 283.205 115.748C283.205 120.91 283.205 124.18 283.205 125.558C283.228 126.912 283.24 127.94 283.24 128.641C285.155 128.641 287.082 128.652 289.021 128.676C290.959 128.676 292.372 128.676 293.26 128.676C295.081 128.676 298.199 128.664 302.614 128.641C307.051 128.617 309.819 128.606 310.916 128.606V144.546ZM334.564 144.546H315.331C315.307 143.191 315.307 140.178 315.331 135.507C315.354 130.836 315.366 125.464 315.366 119.392C315.366 116.613 315.354 113.273 315.331 109.372C315.331 105.449 315.331 101.537 315.331 97.6363H334.564C334.564 100.649 334.552 104.082 334.529 107.936C334.529 111.766 334.529 115.585 334.529 119.392C334.529 125.371 334.54 130.334 334.564 134.281C334.587 138.228 334.587 141.65 334.564 144.546ZM402.949 139.676L385.502 146.227C383.937 144.452 381.812 142.175 379.126 139.396C376.463 136.617 374.023 134.141 371.804 131.969H371.559C369.06 134.258 366.059 137.049 362.555 140.342C359.052 143.612 356.892 145.643 356.074 146.438L338.943 140.062C340.251 138.8 342.808 136.301 346.615 132.564C350.445 128.804 353.984 125.266 357.23 121.949V121.774C354.685 119.112 351.485 115.725 347.631 111.615C343.778 107.481 341.138 104.596 339.714 102.961L357.3 95.6044C358.468 97.0057 360.418 99.2128 363.151 102.226C365.883 105.215 368.616 108.135 371.349 110.984H371.664C373.369 109.372 375.728 106.792 378.741 103.242C381.753 99.6683 383.622 97.2743 384.346 96.0598L402.283 102.541C401.092 103.896 398.628 106.57 394.891 110.564C391.177 114.557 388.013 117.932 385.397 120.688V120.863C388.456 124.25 391.481 127.531 394.471 130.708C397.483 133.884 400.309 136.874 402.949 139.676Z" fill="white"/>
<path fill-rule="evenodd" clip-rule="evenodd" d="M138.43 164.861C163.521 164.861 183.861 144.521 183.861 119.43C183.861 94.3399 163.521 74 138.43 74C113.34 74 93 94.3399 93 119.43C93 130.125 96.6953 139.956 102.879 147.717L112.642 132.136C113.466 130.823 113.466 129.154 112.642 127.84L100.044 107.736C97.7631 104.096 101.98 99.8787 105.621 102.16L125.724 114.758C127.038 115.581 128.707 115.581 130.021 114.758L150.125 102.16C153.765 99.8787 157.982 104.096 155.701 107.736L143.103 127.84C142.279 129.154 142.279 130.823 143.103 132.136L155.701 152.24C157.982 155.881 153.765 160.098 150.125 157.816L130.021 145.218C128.707 144.395 127.038 144.395 125.724 145.218L110.143 154.982C117.905 161.165 127.736 164.861 138.43 164.861ZM153.819 97.4791C154.924 98.1712 156.203 96.8918 155.511 95.7874L151.689 89.6885C151.439 89.2899 151.439 88.7837 151.689 88.3851L155.511 82.2862C156.203 81.1818 154.924 79.9025 153.819 80.5945L147.72 84.4164C147.322 84.6662 146.815 84.6662 146.417 84.4164L140.318 80.5945C139.214 79.9025 137.934 81.1818 138.626 82.2862L142.448 88.3851C142.698 88.7837 142.698 89.2899 142.448 89.6885L138.626 95.7874C137.934 96.8918 139.214 98.1712 140.318 97.4791L146.417 93.6572C146.815 93.4074 147.322 93.4074 147.72 93.6572L153.819 97.4791ZM172.889 101.245C173.222 101.777 172.606 102.393 172.074 102.06L169.138 100.22C168.946 100.099 168.702 100.099 168.51 100.22L165.574 102.06C165.042 102.393 164.426 101.777 164.759 101.245L166.599 98.3087C166.72 98.1168 166.72 97.873 166.599 97.6811L164.759 94.7446C164.426 94.2129 165.042 93.5969 165.574 93.9301L168.51 95.7703C168.702 95.8905 168.946 95.8905 169.138 95.7703L172.074 93.9301C172.606 93.5969 173.222 94.2129 172.889 94.7446L171.049 97.6811C170.928 97.873 170.928 98.1168 171.049 98.3087L172.889 101.245Z" fill="white"/>
</g>
<defs>
<filter id="filter0_f_85_5305" x="-526.096" y="-183.839" width="1454.7" height="1094.64" filterUnits="userSpaceOnUse" color-interpolation-filters="sRGB">
<feFlood flood-opacity="0" result="BackgroundImageFix"/>
<feBlend mode="normal" in="SourceGraphic" in2="BackgroundImageFix" result="shape"/>
<feGaussianBlur stdDeviation="118.441" result="effect1_foregroundBlur_85_5305"/>
</filter>
<radialGradient id="paint0_radial_85_5305" cx="0" cy="0" r="1" gradientUnits="userSpaceOnUse" gradientTransform="translate(247.523 119.523) rotate(-90) scale(490.523)">
<stop stop-color="white"/>
<stop offset="0.263876" stop-color="white" stop-opacity="0.58"/>
<stop offset="0.418573" stop-color="white" stop-opacity="0.2"/>
<stop offset="0.553093" stop-color="white" stop-opacity="0.04"/>
<stop offset="0.815406" stop-color="white" stop-opacity="0"/>
</radialGradient>
<radialGradient id="paint1_radial_85_5305" cx="0" cy="0" r="1" gradientUnits="userSpaceOnUse" gradientTransform="translate(247.523 119.523) rotate(-90) scale(490.523)">
<stop stop-color="white"/>
<stop offset="0.263876" stop-color="white" stop-opacity="0.58"/>
<stop offset="0.418573" stop-color="white" stop-opacity="0.2"/>
<stop offset="0.553093" stop-color="white" stop-opacity="0.04"/>
<stop offset="0.815406" stop-color="white" stop-opacity="0"/>
</radialGradient>
<radialGradient id="paint2_radial_85_5305" cx="0" cy="0" r="1" gradientUnits="userSpaceOnUse" gradientTransform="translate(247.523 119.523) rotate(-90) scale(490.523)">
<stop stop-color="white"/>
<stop offset="0.263876" stop-color="white" stop-opacity="0.58"/>
<stop offset="0.418573" stop-color="white" stop-opacity="0.2"/>
<stop offset="0.553093" stop-color="white" stop-opacity="0.04"/>
<stop offset="0.815406" stop-color="white" stop-opacity="0"/>
</radialGradient>
<radialGradient id="paint3_radial_85_5305" cx="0" cy="0" r="1" gradientUnits="userSpaceOnUse" gradientTransform="translate(247.523 119.523) rotate(-90) scale(490.523)">
<stop stop-color="white"/>
<stop offset="0.263876" stop-color="white" stop-opacity="0.58"/>
<stop offset="0.418573" stop-color="white" stop-opacity="0.2"/>
<stop offset="0.553093" stop-color="white" stop-opacity="0.04"/>
<stop offset="0.815406" stop-color="white" stop-opacity="0"/>
</radialGradient>
<radialGradient id="paint4_radial_85_5305" cx="0" cy="0" r="1" gradientUnits="userSpaceOnUse" gradientTransform="translate(247.523 119.523) rotate(-90) scale(490.523)">
<stop stop-color="white"/>
<stop offset="0.263876" stop-color="white" stop-opacity="0.58"/>
<stop offset="0.418573" stop-color="white" stop-opacity="0.2"/>
<stop offset="0.553093" stop-color="white" stop-opacity="0.04"/>
<stop offset="0.815406" stop-color="white" stop-opacity="0"/>
</radialGradient>
<radialGradient id="paint5_radial_85_5305" cx="0" cy="0" r="1" gradientUnits="userSpaceOnUse" gradientTransform="translate(247.523 119.523) rotate(-90) scale(490.523)">
<stop stop-color="white"/>
<stop offset="0.263876" stop-color="white" stop-opacity="0.58"/>
<stop offset="0.418573" stop-color="white" stop-opacity="0.2"/>
<stop offset="0.553093" stop-color="white" stop-opacity="0.04"/>
<stop offset="0.815406" stop-color="white" stop-opacity="0"/>
</radialGradient>
<radialGradient id="paint6_radial_85_5305" cx="0" cy="0" r="1" gradientUnits="userSpaceOnUse" gradientTransform="translate(247.523 119.523) rotate(-90) scale(490.523)">
<stop stop-color="white"/>
<stop offset="0.263876" stop-color="white" stop-opacity="0.58"/>
<stop offset="0.418573" stop-color="white" stop-opacity="0.2"/>
<stop offset="0.553093" stop-color="white" stop-opacity="0.04"/>
<stop offset="0.815406" stop-color="white" stop-opacity="0"/>
</radialGradient>
<radialGradient id="paint7_radial_85_5305" cx="0" cy="0" r="1" gradientUnits="userSpaceOnUse" gradientTransform="translate(247.523 119.523) rotate(-90) scale(490.523)">
<stop stop-color="white"/>
<stop offset="0.263876" stop-color="white" stop-opacity="0.58"/>
<stop offset="0.418573" stop-color="white" stop-opacity="0.2"/>
<stop offset="0.553093" stop-color="white" stop-opacity="0.04"/>
<stop offset="0.815406" stop-color="white" stop-opacity="0"/>
</radialGradient>
<radialGradient id="paint8_radial_85_5305" cx="0" cy="0" r="1" gradientUnits="userSpaceOnUse" gradientTransform="translate(247.523 119.523) rotate(-90) scale(490.523)">
<stop stop-color="white"/>
<stop offset="0.263876" stop-color="white" stop-opacity="0.58"/>
<stop offset="0.418573" stop-color="white" stop-opacity="0.2"/>
<stop offset="0.553093" stop-color="white" stop-opacity="0.04"/>
<stop offset="0.815406" stop-color="white" stop-opacity="0"/>
</radialGradient>
<radialGradient id="paint9_radial_85_5305" cx="0" cy="0" r="1" gradientUnits="userSpaceOnUse" gradientTransform="translate(247.523 119.523) rotate(-90) scale(490.523)">
<stop stop-color="white"/>
<stop offset="0.263876" stop-color="white" stop-opacity="0.58"/>
<stop offset="0.418573" stop-color="white" stop-opacity="0.2"/>
<stop offset="0.553093" stop-color="white" stop-opacity="0.04"/>
<stop offset="0.815406" stop-color="white" stop-opacity="0"/>
</radialGradient>
<radialGradient id="paint10_radial_85_5305" cx="0" cy="0" r="1" gradientUnits="userSpaceOnUse" gradientTransform="translate(247.523 119.523) rotate(-90) scale(490.523)">
<stop stop-color="white"/>
<stop offset="0.263876" stop-color="white" stop-opacity="0.58"/>
<stop offset="0.418573" stop-color="white" stop-opacity="0.2"/>
<stop offset="0.553093" stop-color="white" stop-opacity="0.04"/>
<stop offset="0.815406" stop-color="white" stop-opacity="0"/>
</radialGradient>
<radialGradient id="paint11_radial_85_5305" cx="0" cy="0" r="1" gradientUnits="userSpaceOnUse" gradientTransform="translate(247.523 119.523) rotate(-90) scale(490.523)">
<stop stop-color="white"/>
<stop offset="0.263876" stop-color="white" stop-opacity="0.58"/>
<stop offset="0.418573" stop-color="white" stop-opacity="0.2"/>
<stop offset="0.553093" stop-color="white" stop-opacity="0.04"/>
<stop offset="0.815406" stop-color="white" stop-opacity="0"/>
</radialGradient>
<radialGradient id="paint12_radial_85_5305" cx="0" cy="0" r="1" gradientUnits="userSpaceOnUse" gradientTransform="translate(247.523 119.523) rotate(-90) scale(490.523)">
<stop stop-color="white"/>
<stop offset="0.263876" stop-color="white" stop-opacity="0.58"/>
<stop offset="0.418573" stop-color="white" stop-opacity="0.2"/>
<stop offset="0.553093" stop-color="white" stop-opacity="0.04"/>
<stop offset="0.815406" stop-color="white" stop-opacity="0"/>
</radialGradient>
<radialGradient id="paint13_radial_85_5305" cx="0" cy="0" r="1" gradientUnits="userSpaceOnUse" gradientTransform="translate(247.523 119.523) rotate(-90) scale(490.523)">
<stop stop-color="white"/>
<stop offset="0.263876" stop-color="white" stop-opacity="0.58"/>
<stop offset="0.418573" stop-color="white" stop-opacity="0.2"/>
<stop offset="0.553093" stop-color="white" stop-opacity="0.04"/>
<stop offset="0.815406" stop-color="white" stop-opacity="0"/>
</radialGradient>
<radialGradient id="paint14_radial_85_5305" cx="0" cy="0" r="1" gradientUnits="userSpaceOnUse" gradientTransform="translate(247.523 119.523) rotate(-90) scale(490.523)">
<stop stop-color="white"/>
<stop offset="0.263876" stop-color="white" stop-opacity="0.58"/>
<stop offset="0.418573" stop-color="white" stop-opacity="0.2"/>
<stop offset="0.553093" stop-color="white" stop-opacity="0.04"/>
<stop offset="0.815406" stop-color="white" stop-opacity="0"/>
</radialGradient>
<radialGradient id="paint15_radial_85_5305" cx="0" cy="0" r="1" gradientUnits="userSpaceOnUse" gradientTransform="translate(247.523 119.523) rotate(-90) scale(490.523)">
<stop stop-color="white"/>
<stop offset="0.263876" stop-color="white" stop-opacity="0.58"/>
<stop offset="0.418573" stop-color="white" stop-opacity="0.2"/>
<stop offset="0.553093" stop-color="white" stop-opacity="0.04"/>
<stop offset="0.815406" stop-color="white" stop-opacity="0"/>
</radialGradient>
<radialGradient id="paint16_radial_85_5305" cx="0" cy="0" r="1" gradientUnits="userSpaceOnUse" gradientTransform="translate(247.523 119.523) rotate(-90) scale(490.523)">
<stop stop-color="white"/>
<stop offset="0.263876" stop-color="white" stop-opacity="0.58"/>
<stop offset="0.418573" stop-color="white" stop-opacity="0.2"/>
<stop offset="0.553093" stop-color="white" stop-opacity="0.04"/>
<stop offset="0.815406" stop-color="white" stop-opacity="0"/>
</radialGradient>
<radialGradient id="paint17_radial_85_5305" cx="0" cy="0" r="1" gradientUnits="userSpaceOnUse" gradientTransform="translate(247.523 119.523) rotate(-90) scale(490.523)">
<stop stop-color="white"/>
<stop offset="0.263876" stop-color="white" stop-opacity="0.58"/>
<stop offset="0.418573" stop-color="white" stop-opacity="0.2"/>
<stop offset="0.553093" stop-color="white" stop-opacity="0.04"/>
<stop offset="0.815406" stop-color="white" stop-opacity="0"/>
</radialGradient>
<radialGradient id="paint18_radial_85_5305" cx="0" cy="0" r="1" gradientUnits="userSpaceOnUse" gradientTransform="translate(247.523 119.523) rotate(-90) scale(490.523)">
<stop stop-color="white"/>
<stop offset="0.263876" stop-color="white" stop-opacity="0.58"/>
<stop offset="0.418573" stop-color="white" stop-opacity="0.2"/>
<stop offset="0.553093" stop-color="white" stop-opacity="0.04"/>
<stop offset="0.815406" stop-color="white" stop-opacity="0"/>
</radialGradient>
<radialGradient id="paint19_radial_85_5305" cx="0" cy="0" r="1" gradientUnits="userSpaceOnUse" gradientTransform="translate(247.523 119.523) rotate(-90) scale(490.523)">
<stop stop-color="white"/>
<stop offset="0.263876" stop-color="white" stop-opacity="0.58"/>
<stop offset="0.418573" stop-color="white" stop-opacity="0.2"/>
<stop offset="0.553093" stop-color="white" stop-opacity="0.04"/>
<stop offset="0.815406" stop-color="white" stop-opacity="0"/>
</radialGradient>
<radialGradient id="paint20_radial_85_5305" cx="0" cy="0" r="1" gradientUnits="userSpaceOnUse" gradientTransform="translate(247.523 119.523) rotate(-90) scale(490.523)">
<stop stop-color="white"/>
<stop offset="0.263876" stop-color="white" stop-opacity="0.58"/>
<stop offset="0.418573" stop-color="white" stop-opacity="0.2"/>
<stop offset="0.553093" stop-color="white" stop-opacity="0.04"/>
<stop offset="0.815406" stop-color="white" stop-opacity="0"/>
</radialGradient>
<radialGradient id="paint21_radial_85_5305" cx="0" cy="0" r="1" gradientUnits="userSpaceOnUse" gradientTransform="translate(247.523 119.523) rotate(-90) scale(490.523)">
<stop stop-color="white"/>
<stop offset="0.263876" stop-color="white" stop-opacity="0.58"/>
<stop offset="0.418573" stop-color="white" stop-opacity="0.2"/>
<stop offset="0.553093" stop-color="white" stop-opacity="0.04"/>
<stop offset="0.815406" stop-color="white" stop-opacity="0"/>
</radialGradient>
<radialGradient id="paint22_radial_85_5305" cx="0" cy="0" r="1" gradientUnits="userSpaceOnUse" gradientTransform="translate(247.523 119.523) rotate(-90) scale(490.523)">
<stop stop-color="white"/>
<stop offset="0.263876" stop-color="white" stop-opacity="0.58"/>
<stop offset="0.418573" stop-color="white" stop-opacity="0.2"/>
<stop offset="0.553093" stop-color="white" stop-opacity="0.04"/>
<stop offset="0.815406" stop-color="white" stop-opacity="0"/>
</radialGradient>
<radialGradient id="paint23_radial_85_5305" cx="0" cy="0" r="1" gradientUnits="userSpaceOnUse" gradientTransform="translate(247.523 119.523) rotate(-90) scale(490.523)">
<stop stop-color="white"/>
<stop offset="0.263876" stop-color="white" stop-opacity="0.58"/>
<stop offset="0.418573" stop-color="white" stop-opacity="0.2"/>
<stop offset="0.553093" stop-color="white" stop-opacity="0.04"/>
<stop offset="0.815406" stop-color="white" stop-opacity="0"/>
</radialGradient>
<linearGradient id="paint24_linear_85_5305" x1="201.253" y1="-135.409" x2="201.253" y2="862.367" gradientUnits="userSpaceOnUse">
<stop stop-color="#D364EF"/>
<stop offset="1" stop-color="#67C7FE"/>
</linearGradient>
<clipPath id="clip0_85_5305">
<rect width="777.067" height="518.044" fill="white" transform="translate(-140.533 -139.146)"/>
</clipPath>
</defs>
</svg>
