<svg width="32" height="32" viewBox="0 0 32 32" fill="none" xmlns="http://www.w3.org/2000/svg">
<path d="M6.01392 19.0077C5.34665 19.856 5.1773 20.9938 5.56859 21.9997C6.63526 23.841 11.0686 23.333 15.9993 20.993" stroke="white" stroke-width="1.99917" stroke-linecap="round" stroke-linejoin="round"/>
<path d="M25.9867 12.992C26.6532 12.1433 26.8225 11.006 26.432 10C25.3653 8.15867 20.932 8.66667 16.0013 11.0067" stroke="white" stroke-width="1.99917" stroke-linecap="round" stroke-linejoin="round"/>
<path d="M20.3406 18.4962C19.9166 23.9255 18.1339 28.0002 16.0006 28.0002C15.1246 28.0002 14.3099 27.3042 13.6219 26.1189" stroke="white" stroke-width="1.99917" stroke-linecap="round" stroke-linejoin="round"/>
<path d="M8.39169 8.88859C7.32035 8.73727 6.24822 9.15944 5.56769 10.0006C4.50102 11.8419 7.15302 15.4166 11.6597 18.4966" stroke="white" stroke-width="1.99917" stroke-linecap="round" stroke-linejoin="round"/>
<path d="M23.6085 23.1115C24.6798 23.2628 25.7519 22.8406 26.4325 21.9995C27.4991 20.1581 24.8471 16.5835 20.3405 13.5035" stroke="white" stroke-width="1.99917" stroke-linecap="round" stroke-linejoin="round"/>
<path d="M11.6605 13.5036C12.0845 8.0743 13.8672 3.99963 16.0005 3.99963C16.8765 3.99963 17.6912 4.69563 18.3792 5.88097" stroke="white" stroke-width="1.99917" stroke-linecap="round" stroke-linejoin="round"/>
</svg>
