<svg width="32" height="32" viewBox="0 0 32 32" fill="none" xmlns="http://www.w3.org/2000/svg">
<path fill-rule="evenodd" clip-rule="evenodd" d="M22.7939 16.1643L15.5982 21.9208C15.0677 22.3452 14.3029 22.3029 13.8225 21.8224L10.1768 18.1768C9.69644 17.6964 9.65408 16.9316 10.0785 16.4011L15.835 9.20542C18.4673 5.91505 22.4526 3.99963 26.6663 3.99963V3.99963C27.4027 3.99963 27.9997 4.59659 27.9997 5.33297V5.33297C27.9997 9.5467 26.0842 13.532 22.7939 16.1643Z" stroke="white" stroke-width="1.99917" stroke-linecap="round" stroke-linejoin="round"/>
<path d="M21.3337 17.3339V23.1766C21.3337 23.6816 21.0484 24.1433 20.5967 24.3692L17.3754 25.9798C17.0297 26.1527 16.626 26.167 16.2689 26.0191C15.9118 25.8712 15.6365 25.5756 15.5142 25.2089L14.6671 22.6673" stroke="white" stroke-width="1.99917" stroke-linecap="round" stroke-linejoin="round"/>
<path d="M9.33361 17.3328L6.79206 16.4856C6.42538 16.3634 6.12978 16.0881 5.98187 15.731C5.83395 15.3739 5.84828 14.9701 6.02113 14.6244L7.6318 11.4032C7.85764 10.9515 8.31928 10.6661 8.82428 10.6661H14.6669" stroke="white" stroke-width="1.99917" stroke-linecap="round" stroke-linejoin="round"/>
<path fill-rule="evenodd" clip-rule="evenodd" d="M7.66643 27.4496L3.99963 28.0005L4.5505 24.3337C4.7292 23.1442 5.66297 22.2104 6.85249 22.0317V22.0317C7.71206 21.9025 8.58192 22.189 9.19656 22.8036C9.81119 23.4183 10.0976 24.2881 9.96849 25.1477V25.1477C9.78975 26.3372 8.85595 27.2709 7.66643 27.4496V27.4496Z" stroke="white" stroke-width="1.99917" stroke-linecap="round" stroke-linejoin="round"/>
</svg>
