<svg width="32" height="32" viewBox="0 0 32 32" fill="none" xmlns="http://www.w3.org/2000/svg">
<path d="M14 27.82C10.3854 27.212 7.32135 24.996 5.57202 21.924" stroke="white" stroke-width="2" stroke-linecap="round" stroke-linejoin="round"/>
<path d="M6.86679 8.22665C5.08279 10.3213 4.00012 13.032 4.00012 16C4.00012 16.74 4.07746 17.4613 4.20546 18.1653" stroke="white" stroke-width="2" stroke-linecap="round" stroke-linejoin="round"/>
<path d="M18.0001 27.82C21.6148 27.212 24.6788 24.996 26.4281 21.924" stroke="white" stroke-width="2" stroke-linecap="round" stroke-linejoin="round"/>
<path d="M9.93335 5.65867C11.7147 4.61067 13.784 4 16 4C18.216 4 20.2854 4.61067 22.0667 5.65867" stroke="white" stroke-width="2" stroke-linecap="round" stroke-linejoin="round"/>
<path d="M25.1335 8.22665C26.9175 10.3213 28.0002 13.032 28.0002 16C28.0002 16.74 27.9229 17.4613 27.7949 18.1653" stroke="white" stroke-width="2" stroke-linecap="round" stroke-linejoin="round"/>
<path fill-rule="evenodd" clip-rule="evenodd" d="M16.0001 12.0004L20.0004 16.0007L16.0001 20.001L11.9998 16.0007L16.0001 12.0004Z" stroke="white" stroke-width="1.99998" stroke-linecap="round" stroke-linejoin="round"/>
</svg>
