<svg width="32" height="32" viewBox="0 0 32 32" fill="none" xmlns="http://www.w3.org/2000/svg">
<circle cx="16" cy="16" r="16" fill="url(#paint0_linear_85_5230)"/>
<mask id="mask0_85_5230" style="mask-type:alpha" maskUnits="userSpaceOnUse" x="0" y="0" width="32" height="32">
<circle cx="16" cy="16" r="16" fill="url(#paint1_linear_85_5230)"/>
</mask>
<g mask="url(#mask0_85_5230)">
<g style="mix-blend-mode:plus-lighter" opacity="0.4" filter="url(#filter0_f_85_5230)">
<ellipse cx="4.03451" cy="3.36342" rx="9.23992" ry="3.87879" transform="rotate(-46.0344 4.03451 3.36342)" fill="white"/>
</g>
<g style="mix-blend-mode:plus-lighter" opacity="0.5" filter="url(#filter1_f_85_5230)">
<ellipse cx="33.6968" cy="21.4142" rx="5.73737" ry="13.1717" fill="#00FFE0"/>
</g>
</g>
<path d="M6.03662 28.5209C5.09054 27.7671 4.23181 26.9084 3.47806 25.9623L6.91675 20.4749C7.2067 20.0122 7.2067 19.4245 6.91675 18.9618L2.47987 11.8814C1.67643 10.5993 3.1616 9.11415 4.44372 9.91758L11.5241 14.3545C11.9868 14.6444 12.5745 14.6444 13.0372 14.3545L20.1175 9.91758C21.3996 9.11415 22.8848 10.5993 22.0814 11.8814L17.6445 18.9618C17.3545 19.4245 17.3545 20.0122 17.6445 20.4749L22.0814 27.5552C22.8848 28.8373 21.3996 30.3225 20.1175 29.5191L13.0372 25.0822C12.5745 24.7922 11.9868 24.7922 11.5241 25.0822L6.03662 28.5209Z" fill="url(#paint2_radial_85_5230)"/>
<path d="M20.8229 7.66725C21.2118 7.91099 21.6624 7.46043 21.4187 7.07147L20.0726 4.9235C19.9847 4.78313 19.9847 4.60484 20.0726 4.46447L21.4187 2.3165C21.6624 1.92755 21.2118 1.47699 20.8229 1.72073L18.6749 3.06675C18.5345 3.15471 18.3563 3.15471 18.2159 3.06675L16.0679 1.72073C15.679 1.47699 15.2284 1.92755 15.4721 2.3165L16.8182 4.46447C16.9061 4.60484 16.9061 4.78313 16.8182 4.9235L15.4721 7.07147C15.2284 7.46043 15.679 7.91099 16.0679 7.66725L18.2159 6.32123C18.3563 6.23326 18.5345 6.23326 18.6749 6.32123L20.8229 7.66725Z" fill="url(#paint3_radial_85_5230)"/>
<path d="M27.3308 9.91946C27.4481 10.1067 27.2312 10.3237 27.0439 10.2063L26.0097 9.55823C25.9421 9.51588 25.8563 9.51588 25.7887 9.55823L24.7545 10.2063C24.5672 10.3237 24.3503 10.1067 24.4676 9.91946L25.1157 8.88525C25.1581 8.81767 25.1581 8.73182 25.1157 8.66424L24.4676 7.63003C24.3503 7.44276 24.5672 7.22582 24.7545 7.34318L25.7887 7.99126C25.8563 8.03361 25.9421 8.03361 26.0097 7.99126L27.0439 7.34318C27.2312 7.22582 27.4481 7.44276 27.3308 7.63003L26.6827 8.66424C26.6403 8.73182 26.6403 8.81767 26.6827 8.88525L27.3308 9.91946Z" fill="url(#paint4_radial_85_5230)"/>
<defs>
<filter id="filter0_f_85_5230" x="-12.366" y="-13.2166" width="32.8014" height="33.16" filterUnits="userSpaceOnUse" color-interpolation-filters="sRGB">
<feFlood flood-opacity="0" result="BackgroundImageFix"/>
<feBlend mode="normal" in="SourceGraphic" in2="BackgroundImageFix" result="shape"/>
<feGaussianBlur stdDeviation="4.70156" result="effect1_foregroundBlur_85_5230"/>
</filter>
<filter id="filter1_f_85_5230" x="18.5564" y="-1.16069" width="30.2809" height="45.1496" filterUnits="userSpaceOnUse" color-interpolation-filters="sRGB">
<feFlood flood-opacity="0" result="BackgroundImageFix"/>
<feBlend mode="normal" in="SourceGraphic" in2="BackgroundImageFix" result="shape"/>
<feGaussianBlur stdDeviation="4.70156" result="effect1_foregroundBlur_85_5230"/>
</filter>
<linearGradient id="paint0_linear_85_5230" x1="16" y1="0" x2="16" y2="32" gradientUnits="userSpaceOnUse">
<stop stop-color="#D364EF"/>
<stop offset="1" stop-color="#67C7FE"/>
</linearGradient>
<linearGradient id="paint1_linear_85_5230" x1="16" y1="0" x2="16" y2="32" gradientUnits="userSpaceOnUse">
<stop stop-color="#D364EF"/>
<stop offset="1" stop-color="#67C7FE"/>
</linearGradient>
<radialGradient id="paint2_radial_85_5230" cx="0" cy="0" r="1" gradientUnits="userSpaceOnUse" gradientTransform="translate(4.60503 2.98996) rotate(52.1957) scale(28.7392 25.6875)">
<stop stop-color="#454545"/>
<stop offset="1"/>
</radialGradient>
<radialGradient id="paint3_radial_85_5230" cx="0" cy="0" r="1" gradientUnits="userSpaceOnUse" gradientTransform="translate(4.60503 2.98996) rotate(52.1957) scale(28.7392 25.6875)">
<stop stop-color="#454545"/>
<stop offset="1"/>
</radialGradient>
<radialGradient id="paint4_radial_85_5230" cx="0" cy="0" r="1" gradientUnits="userSpaceOnUse" gradientTransform="translate(4.60503 2.98996) rotate(52.1957) scale(28.7392 25.6875)">
<stop stop-color="#454545"/>
<stop offset="1"/>
</radialGradient>
</defs>
</svg>
